<svg id="图层_1" data-name="图层 1" xmlns="http://www.w3.org/2000/svg" viewBox="0 0 366.33 227.36"><defs><style>.cls-1{fill:#32b9c8;}.cls-2{fill:#2eb9c7;}.cls-3{fill:#ea7d6e;}.cls-4{fill:#188fa1;}.cls-5{fill:#127d8b;}.cls-6{fill:#cd7c72;}.cls-7{fill:#cccccb;}.cls-8{fill:#bababa;}.cls-9{fill:#178c9f;}.cls-10{fill:#1890a0;}.cls-11{fill:#e87e6f;}.cls-12{fill:#cdcdcc;}.cls-13{fill:#cdcdcd;}.cls-14{fill:#d7d6d6;}.cls-15{fill:#cecece;}.cls-16{fill:#d6d6d6;}.cls-17{fill:#cececd;}.cls-18{fill:#22a4b3;}.cls-19{fill:#e5684b;}.cls-20{fill:#4ea7a8;}.cls-21{fill:#42a3b3;}.cls-22{fill:#d2cfc5;}.cls-23{fill:#d2d2d2;}.cls-24{fill:#ccc;}.cls-25{fill:#cfcfcf;}.cls-26{fill:#cfd2d1;}.cls-27{fill:#dceeef;}.cls-28{fill:#1793a7;}.cls-29{fill:#9e8981;}.cls-30{fill:#f3e5d0;}.cls-31{fill:#cde2e3;}.cls-32{fill:#e0a18c;}.cls-33{fill:#55bdcb;}.cls-34{fill:#53bdc1;}.cls-35{fill:#46bacb;}.cls-36{fill:#53bcc4;}.cls-37{fill:#42bac3;}.cls-38{fill:#5abbbe;}.cls-39{fill:#29a8b6;}.cls-40{fill:#27a5b9;}.cls-41{fill:#add5db;}.cls-42{fill:#db928a;}.cls-43{fill:#dd8c8a;}</style></defs><title>404</title><path class="cls-1" d="M224.57,429.12c1.26-10,5.16-19.42,7.13-29.29.53-2.66,1.39-5.25,2.11-7.87.21-.75.06-2,1.51-1.15,1.18,1.41,2.79.8,4.21.8q65.49,0,131,0c1.86,0,3.78-.29,5.07,1.53q-4.5,17.44-9,34.88c-.5,1.92-1.46,3.27-3.73,1.93-1.18-1.43-2.79-.8-4.21-.8Q291.59,429.11,224.57,429.12Zm42.84-17.35h-.05a61.1,61.1,0,0,0-.05-6.35c-.24-2.29-1.42-4-4-4.07s-5,1-5.19,3.73a79.5,79.5,0,0,0,.26,13c.28,2.78,2.53,3.76,5.22,3.57s3.52-2.12,3.79-4.29A45.3,45.3,0,0,0,267.41,411.77Zm61.42-4c.39-5-2.45-6.31-5.71-6.73-1.39-.17-3.78-.32-3.79,2.4,0,5.37,0,10.73,0,16.09,0,1-.06,2.14,1.48,2s1.34-1.24,1.38-2.23a19.71,19.71,0,0,1,0-3c.26-1.34-.94-3.7,1.9-3.53,2.35.15,2.53,2,2.49,3.86a25.45,25.45,0,0,0,0,2.62c.09.89-.33,2.33,1.18,2.24s1-1.45,1.08-2.39C329.26,415.05,327.23,411,328.83,407.74Zm18.38,3.84c0,2.37,0,4.74,0,7.11,0,1-.55,2.67,1,2.75s1.07-1.61,1.15-2.59a40.23,40.23,0,0,0,0-4.11c0-1.34.38-2.09,1.92-2.06s2.44.39,2.48,2c0,1.37,0,2.75.13,4.11.11.94-.71,2.56,1.16,2.54,1.49,0,1.55-1.4,1.59-2.53.15-4.22-1.1-8.28-.28-12.69.69-3.76-3.27-5-6.36-5.09-3.7-.13-2.72,3.09-2.84,5.29C347.12,408.08,347.2,409.83,347.21,411.58Zm-3.91.29a38.6,38.6,0,0,0-.05-5.64c-.42-2.59-1.58-4.78-4.68-4.84-2.95-.07-4.74,1.34-4.79,4.39-.07,3.86-.06,7.72.08,11.58a4.19,4.19,0,0,0,3.14,4.18c2.27.67,3.66-.58,5-2.19C344.12,416.91,342.78,414.06,343.3,411.87Zm-37.62-.46a35.64,35.64,0,0,0,.05,4.85c.23,1.73-.92,4.92.95,4.87,2.68-.08.73-3.18,1.2-4.89.38-1.4-.7-3.52,2-3.49,2.47,0,2.6,1.85,2.72,3.64.06,1,0,2,0,3,0,.83-.24,2,1,2.08,1.61.1,1-1.32,1.21-2.19.82-3.79-1.46-7.39-.17-11.43,1.53-4.79-2.42-6.51-6.13-6.73-4.37-.27-2.5,3.59-2.84,5.82A26.78,26.78,0,0,0,305.68,411.41Zm-11.84-.15c0,2.49,0,5,0,7.46,0,1.74.58,2.93,2.54,2.91,1.32,0,3.3.76,3.78-.55.84-2.3-1.75-1.23-2.61-1.95-1.52-1.25-.57-3-.76-4.53s.73-1.9,2-1.93c.79,0,2,.25,2-1a2,2,0,0,0-2.07-1.79c-2.62-.09-1.91-2-2-3.5-.18-1.82.38-2.86,2.42-2.7.74,0,1.77-.2,1.54-1.11-.17-.67-1.11-1.62-1.72-1.63-2.67,0-5.41.06-5.16,4C293.94,407,293.83,409.15,293.84,411.26Zm-39.07,2.67c-2.92-1.33-4.61-1.84-5.14-3.85-.12-.43-1.14.93-1.61,1.57a2.55,2.55,0,0,1-3.63.7c-1.26-1,.41-1.82,1-2.61,1.44-2,3-4,4.49-5.95a1.83,1.83,0,0,0-.07-2.68c-1-.71-1.49.5-2,1.14-2,2.57-4.06,5.07-5.76,7.81-1.46,2.34-2.26,4.91,2.11,4.95,2.94,0,4.35,1.27,4,4.34-.1,1,.4,3.1,1.5,2C251.66,419.34,248.52,414.69,254.77,413.93Zm24.16-11.62-.51-1.25c-.48.27-1.12.43-1.42.84-2.23,3-4.54,5.91-6.54,9-1.54,2.43-1,4.6,2.27,4.45s4.95.76,4.43,4.32c-.09.63-.13,1.7.95,1.63s.74-1.07.9-1.75c.32-1.41-1-3.43,1.43-4.07,1-.27,1.79-1.09,1.24-1.82-1-1.33-2.91-1.76-3.6-3.62-.15-.4-1.15.61-1.37,1.31a2,2,0,0,1-3.07,1.09c-1.87-1,.19-1.77.57-2.54C275.51,407.29,278.23,405.52,278.93,402.31Z" transform="translate(-11.51 -251.51)"/><path class="cls-2" d="M191.81,458.29c3.47.1,6.78.47,10,2.25s5.45,4,4.74,7.57c-.77,3.87-4.24,5.23-7.74,6.06-8.05,1.9-15.87-.06-23.52-2-11-2.81-21.55-1-32.27,1.32-10.92,2.37-21.87,5-33.12,5-19.57,0-39.2,1.42-58.67-1.55-12-1.82-24.25-3-34.78-9.8-6.71-4.34-6.47-9.13.33-13.38,2.62-1.62,5.49-2.83,8.24-4.23.57,1.06,1.34.93,2.47.78,4.43-.6,8.39-1.49,10.57,4.86,1.52,4.44,7.5,2.92,11.44,2.89,3.48,0,2.09-3.76,2-5.77-.26-3.88,1.88-4.24,4.59-3.6,6.74,1.57,13.45,3.31,20.14,5.12,8.54,2.3,16.89,5.31,25.65,6.79,2,.74,3.89,1.62,5.9,2.18,1.85.51,3.66,1.49,5.69,1-.71-1.8-1.31-3.67-2.16-5.41-1.29-2.63-1.26-4.16,2.35-3.78,5,.54,10.12,1,15.18,1.36.89.07,2.11.57,2.61-.66.13-.33-.43-1.14-.88-1.46-2.77-2-5.54-4.08-8.44-5.93-1.48-.94-2.68-1.81-2.15-3.79,17.42,4.07,34.87,8.06,52.59,10.68l.17,0c.74,2.4,2.6,1,4,1.16l.28.18-.19,2.9c-2.31-.18-4.4.69-6.55,1.34-1.22.38-2.48.42-2.39,2.21s1,2.29,2.61,2.53c2.71.41,5.67.06,8.06.51,5.33,1,10.24-.51,15.33-.68a2.33,2.33,0,0,0,2.47-2.32c.09-1.76-1-2.12-2.38-2.05C192.21,460.72,191.72,459.78,191.81,458.29ZM83.42,475.79c2.44-.38,5,.83,5-2.88-.06-3.22,0-6.07-4.34-6.32-1.57-.09-3.75,1.08-4.63-1.17-1-2.61-3.42-2.88-5.44-3.11a6.61,6.61,0,0,0-6.4,3.06c-1.24,2.11.81,3.87,2.19,5.1C73.77,474,79,474.59,83.42,475.79Z" transform="translate(-11.51 -251.51)"/><path class="cls-3" d="M76.45,375.18q12-12.33,24-24.65c1.17-.79,2.07-.58,3.35.17,7.27,4.22,14.66,8.24,22,12.33l1.38.88c-2.37.47-2.89,2.4-2.77,4.26.4,6.06-2.51,11.4-4.28,16.75-2.33,7.07-3.64,14.47-7.34,21.3-2.79,5.17-5.17,10.55-8.83,15.22-3.8,4.86-9.2,7.67-14.3,10.84-3.78-2.1-5.88-6.48-10.35-7.65-.08-1.55-1.15-1.44-2.22-1.33a1,1,0,0,0-.73-.11c-4.66-2.42-9.67-3-14.83-2.84-1.65-6.08-.16-12.17-.1-18.26C64.27,391.92,70.89,383.84,76.45,375.18Zm18,10.39c-8.76,0-15.12,6.27-15.1,14.94A14.71,14.71,0,0,0,94,414.88a14.9,14.9,0,0,0,15.14-14.62A14.64,14.64,0,0,0,94.5,385.57Z" transform="translate(-11.51 -251.51)"/><path class="cls-4" d="M61.49,420.35c5.16-.17,10.17.42,14.83,2.84-.71,2.59,3.76,2.51,2.66,5.49-3.17,8.6-1.6,14,5.47,19.46,1.47,1.14,3.17,2,4.61,3.16,4.1,3.33,9.53,4.82,12.74,9.34-8.76-1.48-17.11-4.49-25.65-6.79C69.46,452,62.75,450.3,56,448.73c-2.71-.64-4.85-.28-4.59,3.6.14,2,1.53,5.74-2,5.77-3.94,0-9.92,1.55-11.44-2.89-2.18-6.35-6.14-5.46-10.57-4.86-1.13.15-1.9.28-2.47-.78-2.43-3.17-1.48-5.61,1.79-7.28,2.76-1.41,5.63-2.63,8.52-3.78,1.38-.55,3.61-1,4.21.19,1.89,3.85,5.59,3.6,8.77,4.77,3.58,1.32,6.4.85,9.65-1.35,5.31-3.6,6.74-7.69,4.33-13.68A13.13,13.13,0,0,1,61.49,420.35Z" transform="translate(-11.51 -251.51)"/><path class="cls-5" d="M101.8,460.64c-3.21-4.52-8.64-6-12.74-9.34-1.44-1.17-3.14-2-4.61-3.16-7.07-5.46-8.64-10.86-5.47-19.46,1.1-3-3.37-2.9-2.66-5.49a1,1,0,0,1,.73.11,2.37,2.37,0,0,0,2.22,1.33c4.47,1.17,6.57,5.55,10.35,7.64l.08-.07.24,1.41c1.42,1.42.53,4.82,3.9,4.58l-2.62,2.46c1.21.52,2.4,1.39,3.65,1.51,4.94.49,10,1.33,14.85.9,3.57-.31,4.83-4.65,7.38-6.92.62-.54,1.44-1.46,2-1.35,1.07.23.56,1.45.6,2.25.12,2.37.14,4.73.21,7.1-.53,2,.67,2.85,2.15,3.79,2.9,1.85,5.67,3.9,8.44,5.93.45.32,1,1.13.88,1.46-.5,1.23-1.72.73-2.61.66-5.06-.39-10.13-.82-15.18-1.36-3.61-.38-3.64,1.15-2.35,3.78.85,1.74,1.45,3.61,2.16,5.41-2,.5-3.84-.48-5.69-1C105.69,462.26,103.77,461.38,101.8,460.64Z" transform="translate(-11.51 -251.51)"/><path class="cls-6" d="M93.84,438.19c-3.37.24-2.48-3.16-3.9-4.58l1-.68-1.28-.73-.08.07c5.1-3.16,10.5-6,14.3-10.83,3.66-4.67,6-10.05,8.83-15.22,3.7-6.83,5-14.23,7.34-21.3,1.77-5.35,4.68-10.69,4.28-16.75-.12-1.86.4-3.79,2.77-4.26,1.67,2.43,6.55,1.47,6.3,5.95q-3,11.55-5.93,23.12c-2,1.63-1.72,4.24-2.42,6.35-2.57,7.81-6.26,15.11-9.68,22.53C109.74,429.31,102.86,435.16,93.84,438.19Z" transform="translate(-11.51 -251.51)"/><path class="cls-7" d="M176.79,297.86c0-.74.05-1.48.08-2.22,4.52-1.89,1.46-4.13.44-6.49-1.41-3.23-5.41-4.66-5.75-8.55l1.52.14.75.65a8.4,8.4,0,0,1,4.58,2.89c-1.62,1.52.34,2.06.83,3a19.12,19.12,0,0,1,.23,17.91c-2.46,5.14-7.11,6.41-12.49,6.26-6.1-.18-12.21-.05-18.31-.05-12.56,0-18.34,7.2-15.69,19.62a15.13,15.13,0,0,1-3.52,13.81c-2.12,2.43-4.43,4.69-6.65,7-1-1.69-5-.86-3.8-4.48,4.44-4.07,4.46-9.17,3.25-14.48-.58-2.54-1.5-5-2.17-7.53-3.15-11.78,1.27-17.7,13.65-17.71,10.34,0,20.69.44,31,.69C172,311.44,176.12,307,176.79,297.86Z" transform="translate(-11.51 -251.51)"/><path class="cls-8" d="M122.81,351.85c2.22-2.34,4.53-4.6,6.65-7A15.13,15.13,0,0,0,133,331c-2.65-12.42,3.13-19.62,15.69-19.62,6.1,0,12.21-.13,18.31.05,5.38.15,10-1.12,12.49-6.26a19.12,19.12,0,0,0-.23-17.91c-.49-.93-2.45-1.47-.83-3a5.25,5.25,0,0,1,.63.22l.75.65h0l.79.71h0l.83.72a17.33,17.33,0,0,1,7.42,15.06c-.07,8.67-5.94,14.88-14.64,15-7.61.13-15.22-.22-22.81,0-8.52.22-13.47,5-12.63,13.15,1.11,10.69-3.66,18.09-11.47,24.32Z" transform="translate(-11.51 -251.51)"/><path class="cls-9" d="M76.45,375.18c-5.56,8.66-12.18,16.74-15.06,26.91-10.69-7-10-18.12-10.47-28.86-.16-4-.53-7.94-.74-11.91,0-.83-.09-2,.39-2.43,1-.85,1.78.33,2.56.84Q64.8,367.44,76.45,375.18Z" transform="translate(-11.51 -251.51)"/><path class="cls-10" d="M115.41,421.86c3.42-7.42,7.11-14.72,9.68-22.53.7-2.11.39-4.72,2.42-6.35q13,2.61,26,5.24a8,8,0,0,1,1.87.9,10.36,10.36,0,0,1-1.28,1.7c-7.38,6.48-14.83,12.89-22.17,19.43-1.73,1.54-3.69,1.25-5.64,1.33C122.64,421.71,119,421.77,115.41,421.86Z" transform="translate(-11.51 -251.51)"/><path class="cls-11" d="M172.49,454.82c0-10.34-.1-20.68,0-31,.08-6,4.16-9.58,10.23-9.38,6.26.2,9.62,3.59,9.65,9.75.06,9.09-.06,18.19.23,27.27.11,3.6-1,5.12-4.58,4.66,1.46-1.29,4.56-1.25,3.65-4.45-.78-2.72-3.06-1.08-4.61-1.53a7,7,0,0,0-1.45-.15,19.59,19.59,0,0,1-.36-3.71c.39-4-2.3-9.23,4.16-11.13,1.48-.44.91-2.14.81-3.33-.15-1.81-1.75-1.95-3-2.3a2.75,2.75,0,0,0-3.38,1.68c-1,3.11-1.45,3.57-2.58.09a3,3,0,0,0-3.66-1.89,3.44,3.44,0,0,0-2.86,2.63c-.37,1.67.21,3.56,1.63,3.78,4.33.68,3.33,3.75,3.37,6.42s.05,5.25.08,7.87c-3.29-.21-6.64-.51-6.65,4.32a1.88,1.88,0,0,0-.52.45Z" transform="translate(-11.51 -251.51)"/><path class="cls-12" d="M233,355.73c0-11.21,5.67-17.44,15.79-17.4,8.3,0,14.9,7,14.95,15.74.07,11.35-6.2,18.85-15.76,18.83C238.88,372.88,233,366.14,233,355.73Zm25.54-.24a23.19,23.19,0,0,0,0-3.73c-.81-4.71-3-8.31-7.89-9.86-4-1.25-7.23.21-9.84,2.83-4.28,4.27-4.51,16-.48,20.56,1.75,2,3.73,3.87,6.87,3.91C254.75,369.29,258.59,364.78,258.55,355.49Z" transform="translate(-11.51 -251.51)"/><path class="cls-13" d="M324.51,364.9q0-7.09,0-14.2c0-1.12-.12-2.36,1.49-2.52,1-.1,2-.1,2.28,1.28.17.93.36,1.84,1.61.82,4.12-3.34,8.67-4.22,13-.94,4.9,3.7,4.89,9.33,3.92,14.66-1.42,7.79-9,11.11-16,7.19-1.76-1-1.8-.49-1.79,1,0,2.11,0,4.23,0,6.35-.06,1.65.53,3.89-2.14,3.93-2.95,0-2.32-2.36-2.34-4.12C324.47,373.87,324.51,369.39,324.51,364.9Zm4.51-4.29c0,6.2,1.84,8.58,6.6,8.57s7-2.92,7-8.93-2.28-9.13-6.77-9.12S329,354.2,329,360.61Z" transform="translate(-11.51 -251.51)"/><path class="cls-14" d="M130.34,255c-.41,4.13,1.49,7.22,4.18,10,6.75,7,6.49,13.29-.39,20.27A26.33,26.33,0,0,0,128,294.9a6.21,6.21,0,0,1-1,1.43,7.2,7.2,0,0,1-.37-1.61c0-5.41,2.78-10,4.55-14.86,2.63-7.18,1.81-9.55-5.21-12.78-4.84-2.22-5.85-7.05-2.22-10.89a23.45,23.45,0,0,1,3.41-2.87c1-.68,1.73-2.33,3.07-1.65C131.69,252.45,129.79,253.9,130.34,255Z" transform="translate(-11.51 -251.51)"/><path class="cls-15" d="M279.74,372.9c-7.51,0-12.29-5.11-12.19-12.95s5.1-12.7,13-12.56c6,.1,11,5.86,11,12.73C291.53,367.31,286.35,372.93,279.74,372.9ZM287,360.16c0-5.45-3-9.06-7.59-9-4.74,0-7.41,3.35-7.35,9.18.05,5.59,2.73,8.85,7.29,8.87S287,365.46,287,360.16Z" transform="translate(-11.51 -251.51)"/><path class="cls-13" d="M295.29,360.43c0-7.79,5-13.13,12.17-13,6.51.08,11.39,5.38,11.56,12.57a12.28,12.28,0,0,1-12.43,12.94C299.8,372.9,295.29,367.91,295.29,360.43Zm18.8-.35c0-5.33-3-9.46-6.89-9.43-4.38,0-7.37,3.67-7.4,9,0,6,2.52,9.47,7,9.52C311.66,369.23,314.07,366.22,314.09,360.08Z" transform="translate(-11.51 -251.51)"/><path class="cls-16" d="M15.29,416.94c1.53.38,2.36-.57,3-1.7s0-1.89-1-2.48c-.71-.44-1.79-.8-1.23-1.87.16-.29,1.39-.25,2,0,2.25.85,3.2-.59,4.11-2.16,1.28-2.24-1.08-2-1.93-2.7-.62-.54-1.78-.78-1.16-1.86.16-.29,1.48-.28,2,.05,2.48,1.64,4.11.72,5.58-1.45.35-.52,1.43-1.13,1.78-.95,1.1.57.46,1.46-.06,2.16-.91,1.22-1.07,2.23.59,2.94s2-.74,2.71-1.71c.49-.68.14-2.45,1.71-1.81,1.33.53.6,1.68.17,2.55s-.75,1.84.14,2.73a3.55,3.55,0,0,1,.53,1c-3.48,1.06-4.14,4.05-5.46,6.95-.69,1.51-4.45,1.61-1.8,4.64.14.16,0,.61-.07.93-4-.67-4.72,3.33-7.14,4.89-.35.23-1.13.38-1.32.19-.78-.79.21-1.24.5-1.84.71-1.45,3.48-2.95.71-4.49-2.37-1.32-2.52,1.47-3.29,2.79-.38.66-.61,1.55-1.54,1.05s-.5-1.24-.15-2c.63-1.33,1.63-2.71-.21-3.92-.59-.38-1.62-.58-1.32-1.51C13.5,416.11,14.48,416.65,15.29,416.94Zm10.39-3.56a4.1,4.1,0,0,0,3.17-3.17c.25-1.38-1.16-1.88-2.21-1.9-2.12,0-2.9,1.72-3.3,3.37C23.05,412.87,24.21,413.24,25.68,413.38Zm-3.92,6a3.61,3.61,0,0,0,3.2-2.94c.21-1.5-1.53-2-2.63-2-2.16-.15-2.33,1.95-2.7,3.35C19.31,418.92,20.53,419.28,21.76,419.37Z" transform="translate(-11.51 -251.51)"/><path class="cls-17" d="M361.61,351.13c-2.27,0-4.75-.36-5.36,2.37-.66,3,2.09,3.54,4,4.59a32.63,32.63,0,0,1,5.13,2.93,5.48,5.48,0,0,1,1.57,6.46c-1.2,3.26-3.94,4.7-7.11,5.35a6.59,6.59,0,0,1-3.69-.11c-1.61-.69-4.92.1-4.34-2.85.62-3.18,3.09-.57,4.52-.39,2.76.33,5.33.1,6.24-2.57s-1.24-4.09-3.69-5.06c-4.16-1.65-7.86-4.07-6.44-9.36,1.15-4.32,4.9-5.21,8.89-5.07,1.71.06,4.12.17,4.08,2.24C365.36,352,362.9,350.85,361.61,351.13Z" transform="translate(-11.51 -251.51)"/><path class="cls-18" d="M191.81,458.29c-.09,1.49.4,2.43,2.09,2.35,1.42-.07,2.47.29,2.38,2.05a2.33,2.33,0,0,1-2.47,2.32c-5.09.17-10,1.68-15.33.68-2.39-.45-5.35-.1-8.06-.51-1.6-.24-2.52-.81-2.61-2.53s1.17-1.83,2.39-2.21c2.15-.65,4.24-1.52,6.55-1.34.33,1.07-.37,2.67,1.51,2.94,1.21.18,1.55-.47,1.43-1.54a20.48,20.48,0,0,1,.06-2.6c.07-.55.36-1.49.62-1.52,1.14-.09.79.94.91,1.58.22,1.27-.36,3.69.65,3.58,1.75-.18.7-2.39,1-3.71.11-.47.28-.93.43-1.39.23,1.46,1.39,1.09,2.32,1.18.48,1.3-.64,3,1,4,.32-1.27.64-2.54,1-3.81,0-.1.17-.17.26-.26Z" transform="translate(-11.51 -251.51)"/><path class="cls-19" d="M187.92,457.55c-.09.09-.23.16-.26.26-.33,1.27-.65,2.54-1,3.81-1.63-1-.51-2.7-1-4,.14-2.2-1-1.82-2.32-1.18-.15.46-.32.92-.43,1.39-.32,1.32.73,3.53-1,3.71-1,.11-.43-2.31-.65-3.58-.12-.64.23-1.67-.91-1.58-.26,0-.55,1-.62,1.52a20.48,20.48,0,0,0-.06,2.6c-2.88-.18.46-4.33-2.75-4.3l-.28-.18c-.34-2.31-2.46-.77-3.48-1.61,0-4.83,3.36-4.53,6.65-4.32l1.44.05,2.37-.12,2,0a7,7,0,0,1,1.45.15c1.55.45,3.83-1.19,4.61,1.53.91,3.2-2.19,3.16-3.65,4.45C188,456.59,188,457.07,187.92,457.55Z" transform="translate(-11.51 -251.51)"/><path class="cls-20" d="M375.57,393.16c-1.29-1.82-3.21-1.53-5.07-1.53q-65.49,0-131,0c-1.42,0-3,.61-4.21-.8q69.39,0,138.77-.06a7.45,7.45,0,0,1,1.45.29c0,.71,0,1.42,0,2.13Z" transform="translate(-11.51 -251.51)"/><path class="cls-21" d="M224.57,429.12q67,0,134,.05c1.42,0,3-.63,4.21.8q-67.87,0-135.74.07C226.18,430,225,430.57,224.57,429.12Z" transform="translate(-11.51 -251.51)"/><path class="cls-13" d="M377,350.74c0,3.12,0,6.24,0,9.37,0,1.24-.26,2.23-1.81,2.27s-1.87-.82-1.92-2.13c-.22-6.22-.48-12.44-.74-18.66-.07-1.87.42-3.26,2.65-3.16s1.87,1.9,1.89,3.32c0,3,0,6,0,9Z" transform="translate(-11.51 -251.51)"/><path class="cls-15" d="M194.79,388.75c-.15-1.27.5-3.2-1.26-3.46s-2.3,1.42-2.49,3a15.68,15.68,0,0,1-.61,2.52c-.25,1-.42,2.19-1.75,2s-1.55-1.56-1.34-2.66c.55-2.76,1.63-5.41,4.41-6.5,2.17-.86,4.16.22,5.59,2,2,2.57,1.09,5.32-.25,7.65-1.59,2.77-4.14,4.95-5,8.21-.18.69-.72,1.41-1.65,1.14-1.15-.33-1-1.39-.84-2.19.34-2.43,1.92-4.28,3.21-6.24C193.92,392.55,195.07,390.92,194.79,388.75Z" transform="translate(-11.51 -251.51)"/><path class="cls-22" d="M125.76,363l1.56-8.07c8.92,3.59,9.44,4.86,6.12,14.9.25-4.48-4.63-3.52-6.3-5.95Z" transform="translate(-11.51 -251.51)"/><path class="cls-23" d="M199,407.78c-1.19-.41-.74-1-.33-1.71,2.94-4.89,5.81-9.81,8.79-14.66a2.08,2.08,0,1,1,3.44,2.17c-3.6,4.58-7.33,9.05-11,13.54A4.36,4.36,0,0,1,199,407.78Z" transform="translate(-11.51 -251.51)"/><path class="cls-24" d="M171.56,280.6c.34,3.89,4.34,5.32,5.75,8.55,1,2.36,4.08,4.6-.44,6.49-.65-5.21-3.25-9.3-7.06-12.8-.62-.58-2.26-1.46-1.26-2.62C169.23,279.43,170.65,279.67,171.56,280.6Z" transform="translate(-11.51 -251.51)"/><path class="cls-24" d="M176.79,297.86c-.67,9.09-4.76,13.58-12,10.48C170.22,306.49,175.08,304,176.79,297.86Z" transform="translate(-11.51 -251.51)"/><path class="cls-25" d="M377.84,369.63c-.08,1.62-.86,3-2.74,3.17a2.72,2.72,0,0,1-3.16-2.84,2.84,2.84,0,0,1,3-3.06C376.72,366.78,377.73,367.61,377.84,369.63Z" transform="translate(-11.51 -251.51)"/><path class="cls-26" d="M195.64,415.58a2.14,2.14,0,0,1-2.33-2.39c0-2.14,1.42-2.7,3.13-2.74a1.92,1.92,0,0,1,2,2.44A2.92,2.92,0,0,1,195.64,415.58Z" transform="translate(-11.51 -251.51)"/><path class="cls-15" d="M191.74,406.19a2,2,0,0,1-2.27,1.89c-1.12-.05-1.45-.8-1.35-1.76a2,2,0,0,1,2.26-1.88C191.52,404.48,191.79,405.21,191.74,406.19Z" transform="translate(-11.51 -251.51)"/><path class="cls-1" d="M375.56,393.17c0-.71,0-1.42,0-2.13C376.47,391.74,376.21,392.45,375.56,393.17Z" transform="translate(-11.51 -251.51)"/><path class="cls-24" d="M181.41,286.58l-.83-.72Z" transform="translate(-11.51 -251.51)"/><path class="cls-24" d="M180.59,285.87l-.79-.71Z" transform="translate(-11.51 -251.51)"/><path class="cls-24" d="M179.79,285.15l-.75-.65Z" transform="translate(-11.51 -251.51)"/><path class="cls-24" d="M173.83,281.39l-.75-.65Z" transform="translate(-11.51 -251.51)"/><path class="cls-27" d="M293.84,411.26c0-2.11.1-4.23,0-6.34-.25-3.94,2.49-4,5.16-4,.61,0,1.55,1,1.72,1.63.23.91-.8,1.16-1.54,1.11-2-.16-2.6.88-2.42,2.7.14,1.51-.57,3.41,2,3.5a2,2,0,0,1,2.07,1.79c0,1.27-1.22,1-2,1-1.32,0-2.24.43-2,1.93s-.76,3.28.76,4.53c.86.72,3.45-.35,2.61,1.95-.48,1.31-2.46.54-3.78.55-2,0-2.55-1.17-2.54-2.91C293.85,416.24,293.84,413.75,293.84,411.26Z" transform="translate(-11.51 -251.51)"/><path class="cls-28" d="M83.42,475.79c-4.42-1.2-9.65-1.75-13.65-5.32-1.38-1.23-3.43-3-2.19-5.1a6.61,6.61,0,0,1,6.4-3.06c2,.23,4.41.5,5.44,3.11.88,2.25,3.06,1.08,4.63,1.17,4.34.25,4.28,3.1,4.34,6.32C88.45,476.62,85.86,475.41,83.42,475.79Z" transform="translate(-11.51 -251.51)"/><path class="cls-29" d="M176.94,456.2c3.21,0-.13,4.12,2.75,4.3.12,1.07-.22,1.72-1.43,1.54-1.88-.27-1.18-1.87-1.51-2.94C176.81,458.13,176.87,457.17,176.94,456.2Z" transform="translate(-11.51 -251.51)"/><path class="cls-29" d="M173.18,454.41c1,.84,3.14-.7,3.48,1.61-1.4-.17-3.26,1.24-4-1.16A1.88,1.88,0,0,1,173.18,454.41Z" transform="translate(-11.51 -251.51)"/><path class="cls-4" d="M79.27,424.63a2.37,2.37,0,0,1-2.22-1.33C78.12,423.19,79.19,423.08,79.27,424.63Z" transform="translate(-11.51 -251.51)"/><path class="cls-3" d="M89.7,432.2l1.28.73-1,.68Z" transform="translate(-11.51 -251.51)"/><path class="cls-30" d="M185.64,450l-2,0c0-3.61,0-7.22-.13-10.82,0-.92.3-2.38-1.1-2.31s-1,1.51-1,2.43c-.08,3.61-.11,7.21-.16,10.82l-1.44-.05c0-2.62,0-5.25-.08-7.87s1-5.74-3.37-6.42c-1.42-.22-2-2.11-1.63-3.78a3.44,3.44,0,0,1,2.86-2.63,3,3,0,0,1,3.66,1.89c1.13,3.48,1.62,3,2.58-.09a2.75,2.75,0,0,1,3.38-1.68c1.27.35,2.87.49,3,2.3.1,1.19.67,2.89-.81,3.33-6.46,1.9-3.77,7.08-4.16,11.13A19.59,19.59,0,0,0,185.64,450Zm1.07-15.59c.88-.15,1.74-.43,1.73-1.5a1.2,1.2,0,0,0-1.48-1.21,1.79,1.79,0,0,0-1.54,1.79C185.4,434.25,186.06,434.37,186.71,434.39Zm-7-1.22a1.43,1.43,0,0,0-1.3-1.5,1.26,1.26,0,0,0-1.47,1.27c-.08.91.48,1.31,1.32,1.38S179.71,434.2,179.69,433.17Z" transform="translate(-11.51 -251.51)"/><path class="cls-31" d="M183.38,456.44c1.3-.64,2.46-1,2.32,1.18C184.77,457.53,183.61,457.9,183.38,456.44Z" transform="translate(-11.51 -251.51)"/><path class="cls-32" d="M181.27,450.14c0-3.61.08-7.21.16-10.82,0-.92-.35-2.37,1-2.43s1.08,1.39,1.1,2.31c.08,3.6.09,7.21.13,10.82Z" transform="translate(-11.51 -251.51)"/><path class="cls-33" d="M265.15,414.76c.2,2.25.24,4.29-2.31,4.53-1.42.13-2.25-1-2-2.48.34-2.23,1.67-4.41,3.49-4.89C265.8,411.54,264.8,414,265.15,414.76Z" transform="translate(-11.51 -251.51)"/><path class="cls-34" d="M262.49,403.66c1.54,0,2.85.46,2.56,1.84-.46,2.18-1.61,4.42-3.63,5.23-1,.39-.72-1.84-.67-2.77C260.85,406.35,259.81,404,262.49,403.66Z" transform="translate(-11.51 -251.51)"/><path class="cls-35" d="M326.65,407.29c.16,1.42-.35,2.45-2.19,2.49-3.65.06-1.68-2.87-2.33-4.38s.3-1.72,1.48-1.69C325.82,403.76,326.71,405,326.65,407.29Z" transform="translate(-11.51 -251.51)"/><path class="cls-36" d="M353.91,407.55c.28,1.6-.85,2.68-2.71,2.58-2.49-.13-1.61-2.27-1.78-3.71-.21-1.68.1-2.88,2.25-2.78C354.16,403.76,353.77,405.53,353.91,407.55Z" transform="translate(-11.51 -251.51)"/><path class="cls-37" d="M340.29,411.47c0,1.75,0,3.49,0,5.23,0,1.37-.34,2.63-2,2.49a2.39,2.39,0,0,1-2.33-2.78c.06-3.24,0-6.48,0-9.72,0-1.62.42-3,2.48-3s1.85,1.61,1.9,2.93c.06,1.62,0,3.24,0,4.86Z" transform="translate(-11.51 -251.51)"/><path class="cls-38" d="M308,406.76c-.09-1.55-1.16-3.14,1.4-3.12,2.23,0,3.11,1.1,3.17,3.12,0,1.84-.77,3.16-2.7,3.32C306.52,410.34,308.77,407.55,308,406.76Z" transform="translate(-11.51 -251.51)"/><path class="cls-39" d="M91.34,409.64c-4.93-.87-8-5.31-7.44-10.63.67-6,5-9.21,11.93-8.86-.61,1.72-2.54,1.32-3.63,2.26-.59.51-2.24,1.09-1.68,1.41,3.33,1.93,2,3.78.51,6.06-.61.92.67,1.35,1.55,1.47,4,.55,3.69,2.31,1.44,4.77C93,407.21,92.23,408.47,91.34,409.64Z" transform="translate(-11.51 -251.51)"/><path class="cls-40" d="M97.35,391.59c3.22-.88,4.66,1.11,6,3.55,2.23,4.16,2.09,8.16-1.1,11.61-2.44,2.63-5.24,5.25-9.38,2.9,2.11-2.4,4.92-4.5,6.07-7.29.65-1.57-2.87-1.29-4.37-2.13a2.78,2.78,0,0,1-.53-.5C96.65,397.64,93.19,393.05,97.35,391.59Z" transform="translate(-11.51 -251.51)"/><path class="cls-41" d="M97.35,391.59c-4.16,1.46-.7,6.05-3.33,8.14a2.78,2.78,0,0,0,.53.5c1.5.84,5,.56,4.37,2.13-1.15,2.79-4,4.89-6.07,7.29H91.34c.89-1.17,1.69-2.43,2.68-3.52,2.25-2.46,2.52-4.22-1.44-4.77-.88-.12-2.16-.55-1.55-1.47,1.51-2.28,2.82-4.13-.51-6.06-.56-.32,1.09-.9,1.68-1.41,1.09-.94,3-.54,3.63-2.26C96.82,390.12,97.26,390.67,97.35,391.59Z" transform="translate(-11.51 -251.51)"/><path class="cls-42" d="M186.71,434.39c-.65,0-1.31-.14-1.29-.92a1.79,1.79,0,0,1,1.54-1.79,1.2,1.2,0,0,1,1.48,1.21C188.45,434,187.59,434.24,186.71,434.39Z" transform="translate(-11.51 -251.51)"/><path class="cls-43" d="M179.69,433.17c0,1-.63,1.22-1.45,1.15s-1.4-.47-1.32-1.38a1.26,1.26,0,0,1,1.47-1.27A1.43,1.43,0,0,1,179.69,433.17Z" transform="translate(-11.51 -251.51)"/></svg>